HIERARCHY
ROOT ui
{
	 OFFSET 0 0 0
	 CHANNELS 3 XPosition YPosition Z Position
	 EndSite
	 {
	 OFFSET 0 -1 0
	 }
}
ROOT li
{
	 OFFSET 0 0 0
	 CHANNELS 3 XPosition YPosition Z Position
	 EndSite
	 {
	 OFFSET 0 -1 0
	 }
}
ROOT ul
{
	 OFFSET 0 0 0
	 CHANNELS 3 XPosition YPosition Z Position
	 EndSite
	 {
	 OFFSET 0 -1 0
	 }
}
ROOT ll
{
	 OFFSET 0 0 0
	 CHANNELS 3 XPosition YPosition Z Position
	 EndSite
	 {
	 OFFSET 0 -1 0
	 }
}
ROOT tt
{
	 OFFSET 0 0 0
	 CHANNELS 3 XPosition YPosition Z Position
	 EndSite
	 {
	 OFFSET 0 -1 0
	 }
}
ROOT tb
{
	 OFFSET 0 0 0
	 CHANNELS 3 XPosition YPosition Z Position
	 EndSite
	 {
	 OFFSET 0 -1 0
	 }
}
ROOT td
{
	 OFFSET 0 0 0
	 CHANNELS 3 XPosition YPosition Z Position
	 EndSite
	 {
	 OFFSET 0 -1 0
	 }
}
ROOT v
{
	 OFFSET 0 0 0
	 CHANNELS 3 XPosition YPosition Z Position
	 EndSite
	 {
	 OFFSET 0 -1 0
	 }
}
ROOT bn
{
	 OFFSET 0 0 0
	 CHANNELS 3 XPosition YPosition Z Position
	 EndSite
	 {
	 OFFSET 0 -1 0
	 }
}
MOTION
Frames: 19
Frame Time: 0.002
-0.018214855194091797	0.005382949829101562	0		0.673486572265625	-2.632631591796875	0		-1.0307515869140624	0.04142856979370117	0		-0.3082081298828125	-3.022165283203125	0		1.92761328125	-0.912494384765625	0		3.26584765625	0.21914401245117188	0		4.68371630859375	0.6153380737304688	0		5.9997626953125	0.488171630859375	0		-0.028450674057006835	5.93339501953125	0		
0.003581924915313721	0.0011608790159225463	0		0.695261962890625	-2.639845703125	0		-0.9559122924804687	0.039303531646728514	0		-0.34326901245117186	-3.019432861328125	0		1.9348931884765626	-0.8884467163085937	0		3.28789453125	0.22995600891113283	0		4.6986923828125	0.6222839965820313	0		5.995490234375	0.4804537353515625	0		-0.04383172988891602	5.9227958984375	0		
-0.0176180477142334	-0.002351227045059204	0		0.6681920776367187	-2.638245849609375	0		-1.026971435546875	0.04461393356323242	0		-0.3104080810546875	-3.0228583984375	0		1.9350079345703124	-0.8742811279296875	0		3.276042236328125	0.24734597778320314	0		4.7026630859375	0.6294307250976563	0		5.9953466796875	0.4806908264160156	0		-0.04406887054443359	5.9229296875	0		
0.003309609889984131	0.001416654944419861	0		0.669146728515625	-2.636127197265625	0		-1.0230424194335936	0.04864496231079102	0		-0.37430160522460937	-3.01167138671875	0		1.9532906494140625	-0.8504229736328125	0		3.3089794921875	0.2519844970703125	0		4.71174658203125	0.6435018920898438	0		5.9993330078125	0.4888750915527344	0		-0.17570263671875	5.9022509765625	0		
-0.013838377952575684	8.095219731330871E-4	0		0.65808056640625	-2.635818115234375	0		-1.0099947509765625	0.05950785827636719	0		-0.3353318786621094	-3.0102265625	0		1.96951123046875	-0.8305371704101563	0		3.34718603515625	0.272535400390625	0		4.746708984375	0.6501400756835938	0		6.00718603515625	0.4889988403320312	0		-0.15985194396972657	5.91008544921875	0		
0.012015856742858887	-5.313889980316162E-4	0		0.6741233520507812	-2.62997509765625	0		-1.0101217041015624	0.05957526016235352	0		-0.36625582885742186	-3.002623779296875	0		1.9719261474609375	-0.7994284057617187	0		3.338272216796875	0.2858673400878906	0		4.76268115234375	0.6570918579101562	0		6.0070478515625	0.48925271606445314	0		-0.19143115234375	5.8926962890625	0		
0.002939157962799072	0.0016993249654769897	0		0.67101708984375	-2.63382568359375	0		-1.0102346801757813	0.059628154754638674	0		-0.3411220397949219	-2.99297216796875	0		1.9951673583984375	-0.7796813354492188	0		3.360333740234375	0.29666949462890624	0		4.77843310546875	0.6500354614257813	0		6.0027900390625	0.48156430053710936	0		-0.19170272827148438	5.892771484375	0		
0.007762875080108643	-0.003317178964614868	0		0.6709971923828125	-2.6337412109375	0		-1.0103284912109376	0.059666522979736326	0		-0.3689781494140625	-2.983449951171875	0		2.0014459228515626	-0.7586634521484374	0		3.37229833984375	0.30062713623046877	0		4.78243896484375	0.6571650390625	0		5.998818359375	0.48986068725585935	0		-0.059608135223388675	5.91262841796875	0		
-0.01828559684753418	-0.0018327929973602295	0		0.67100146484375	-2.6336708984375	0		-1.006349609375	0.06262303161621094	0		-0.3947608947753906	-2.9709775390625	0		1.996698486328125	-0.7404757080078125	0		3.404499755859375	0.3172371826171875	0		4.7972333984375	0.6501004638671875	0		6.007435546875	0.4719312438964844	0		-0.19220547485351563	5.89187890625	0		
0.002736751079559326	0.0018541450500488281	0		0.6242403564453125	-2.620835693359375	0		-0.9982608032226562	0.07049757385253906	0		-0.43131442260742187	-2.946340087890625	0		2.047169677734375	-0.7112174072265625	0		3.41163134765625	0.3282523193359375	0		4.81640380859375	0.663955078125	0		6.00692919921875	0.5051497192382812	0		-0.059065700531005856	5.911697265625	0		
0.01169355010986328	-2.7212700247764585E-4	0		0.67416748046875	-2.62962353515625	0		-0.9982715454101563	0.07049150085449218	0		-0.38814471435546877	-2.9410439453125	0		2.0507119140625	-0.6791900024414063	0		3.447790771484375	0.3387745361328125	0		4.84225634765625	0.6566860961914063	0		6.0107890625	0.4982799682617188	0		-0.045064109802246094	5.922484375	0		
0.011722222328186035	-2.631489932537079E-4	0		0.6654232788085938	-2.620447265625	0		-0.9982449340820313	0.07047096252441407	0		-0.39071505737304685	-2.921999755859375	0		2.08900341796875	-0.6647527465820312	0		3.460890380859375	0.34366796875	0		4.84149755859375	0.670850830078125	0		6.01565380859375	0.4893826904296875	0		-0.1927348175048828	5.8919306640625	0		
0.0028256709575653076	0.0018804839849472046	0		0.6796333618164062	-2.6166650390625	0		-0.9981778564453125	0.07043653869628906	0		-0.3973280029296875	-2.907902587890625	0		2.098504150390625	-0.6398489379882812	0		3.470378173828125	0.36961175537109375	0		4.86256103515625	0.6716400756835937	0		6.001611328125	0.48378582763671873	0		-0.19283815002441407	5.89191943359375	0		
0.007852982997894288	-0.0032201709747314454	0		0.6227122802734375	-2.62272265625	0		-0.9940203857421875	0.07332215118408203	0		-0.42291473388671874	-2.894505615234375	0		2.099095458984375	-0.6118106079101563	0		3.4873271484375	0.36041455078125	0		4.88240185546875	0.6564347534179688	0		5.99342822265625	0.467075927734375	0		-0.05857082366943359	5.91068115234375	0		
0.01205295181274414	-3.186700046062469E-4	0		0.6809479370117187	-2.6226923828125	0		-0.9729072875976562	0.07091526794433593	0		-0.443364013671875	-2.87520703125	0		2.122755126953125	-0.5821651000976562	0		3.540723876953125	0.3756080322265625	0		4.90176171875	0.67022900390625	0		6.0108271484375	0.4829350280761719	0		-0.1748060302734375	5.8985595703125	0		
0.007324385166168213	0.004717589855194092	0		0.6355639038085937	-2.60096484375	0		-0.9686720581054687	0.07377530670166016	0		-0.3897870178222656	-2.8571396484375	0		2.164283935546875	-0.562826171875	0		3.52301904296875	0.38295989990234375	0		4.91294580078125	0.6711442260742188	0		6.00687060546875	0.4751302490234375	0		-0.05857369613647461	5.910599609375	0		
0.00841368293762207	-0.0033560760021209717	0		0.6577256469726562	-2.609364990234375	0		-0.9725020141601562	0.0707548370361328	0		-0.46819390869140626	-2.8389150390625	0		2.16598046875	-0.5348423461914062	0		3.5403251953125	0.3887232971191406	0		4.928013671875	0.6629824829101563	0		6.00320947265625	0.483309814453125	0		-0.19186677551269532	5.8907255859375	0		
-0.01732011604309082	-0.002001255989074707	0		0.6320997924804688	-2.60599169921875	0		-0.9722578125	0.07065547943115234	0		-0.43968930053710936	-2.8284599609375	0		2.207564208984375	-0.5155256958007812	0		3.55442724609375	0.38052581787109374	0		4.92824072265625	0.6630533447265625	0		6.00414697265625	0.465397705078125	0		-0.19080699157714845	5.88963232421875	0		
0.0040067129135131834	0.0015704269409179687	0		0.64432373046875	-2.61325244140625	0		-1.0380032958984375	0.07062300109863281	0		-0.47597796630859374	-2.805954345703125	0		2.191254638671875	-0.4902704772949219	0		3.603853759765625	0.39074261474609373	0		4.96236669921875	0.6555579223632813	0		6.00223388671875	0.45552285766601563	0		-0.19071438598632812	5.88954296875	0		
